<svg width="20" height="14" viewBox="0 0 20 14" fill="none" xmlns="http://www.w3.org/2000/svg">
<path fill-rule="evenodd" clip-rule="evenodd" d="M2.34914 0.5H17.6522C18.489 0.5 19.1673 1.24619 19.1673 2.16667V12.1667C19.1673 13.0871 18.489 13.8333 17.6522 13.8333H2.34914C1.51234 13.8333 0.833984 13.0871 0.833984 12.1667V2.16667C0.833984 1.24619 1.51234 0.5 2.34914 0.5ZM2.50065 2.16667V12.1667H17.5006V2.16667H2.50065ZM4.16732 8.83333V10.5H5.83399V8.83333H4.16732ZM6.66732 10.5V8.83333H9.16732V10.5H6.66732ZM14.1673 8.83333V10.5H15.834V8.83333H14.1673ZM11.6673 10.5V8.83333H13.334V10.5H11.6673ZM6.66732 4.66667H4.16732V7.16667H6.66732V4.66667Z" fill="url(#paint0_linear_928_52)"/>
<defs>
<linearGradient id="paint0_linear_928_52" x1="10.0007" y1="0.5" x2="10.0007" y2="13.8333" gradientUnits="userSpaceOnUse">
<stop stop-color="#252525"/>
<stop offset="1" stop-color="#2C2C2C"/>
</linearGradient>
</defs>
</svg>
